<svg width="52" height="54" viewBox="0 0 52 54" fill="none" xmlns="http://www.w3.org/2000/svg">
<g clip-path="url(#clip0_1_80)">
<path d="M51.9999 0.827271H0.10498V53.7202H51.9999V0.827271Z" fill="#FFFEF0"/>
<path d="M13.9208 21.2374C13.9208 20.3128 13.274 19.5641 12.0879 19.5641H9.26976V22.9107H12.0879C13.2308 22.9107 13.9208 22.2942 13.9208 21.2374ZM13.6405 15.2707C13.6405 14.3681 12.9935 13.7295 11.9585 13.7295H9.26976V16.8119H11.9585C12.9935 16.8119 13.6405 16.2175 13.6405 15.2707ZM6.20776 25.6629V10.9774H12.6269C15.3655 10.9774 16.7672 12.7609 16.7672 14.7203C16.7672 16.5477 15.6458 17.8027 14.2874 18.089C15.84 18.3312 17.0476 19.8504 17.0476 21.6777C17.0476 23.9015 15.6243 25.6629 12.8642 25.6629H6.20776Z" fill="#004449"/>
<path d="M28.3385 25.6628V23.5712L33.0395 17.4724H28.3385V15.0284H36.7701V17.032L31.9828 23.2189H36.8563V25.6628H28.3385Z" fill="#004449"/>
<path d="M37.5577 25.6628V23.5712L42.2586 17.4724H37.5577V15.0284H45.9891V17.032L41.202 23.2189H46.0753V25.6628H37.5577Z" fill="#004449"/>
<path d="M17.5946 21.4107V15.0287H20.3497V21.3145C20.3497 22.5843 21.1056 23.5006 22.5703 23.5006C24.0185 23.5006 24.7741 22.5843 24.7741 21.3145V15.0287H27.5138V21.3951C27.5138 24.0634 25.9395 25.9445 22.5703 25.9445C19.2004 25.9445 17.5946 24.0471 17.5946 21.4107Z" fill="#004449"/>
<path d="M6.15637 44.2167V29.619H16.0797V32.3547H9.20021V35.4187H14.3768V38.1543H9.20021V44.2167H6.15637Z" fill="#004449"/>
<path d="M19.9212 35.6595C18.2279 35.6595 17.499 36.8632 17.3918 37.9137H22.4935C22.4076 36.907 21.7218 35.6595 19.9212 35.6595ZM14.5624 38.9205C14.5624 35.8565 16.7917 33.3834 19.9212 33.3834C23.0293 33.3834 25.1085 35.747 25.1085 39.1831V39.8397H17.4133C17.6061 41.1309 18.6351 42.2033 20.3928 42.2033C21.2716 42.2033 22.4719 41.8312 23.1364 41.1748L24.3583 43.0132C23.3293 43.9761 21.7003 44.4795 20.0927 44.4795C16.9418 44.4795 14.5624 42.3127 14.5624 38.9205Z" fill="#004449"/>
<path d="M30.9276 35.6595C29.2342 35.6595 28.5053 36.8632 28.3981 37.9137H33.4997C33.414 36.907 32.7281 35.6595 30.9276 35.6595ZM25.5687 38.9205C25.5687 35.8565 27.798 33.3834 30.9276 33.3834C34.0356 33.3834 36.1147 35.747 36.1147 39.1831V39.8397H28.4196C28.6126 41.1309 29.6414 42.2033 31.3991 42.2033C32.2778 42.2033 33.4782 41.8312 34.1428 41.1748L35.3645 43.0132C34.3356 43.9761 32.7066 44.4795 31.0991 44.4795C27.9482 44.4795 25.5687 42.3127 25.5687 38.9205Z" fill="#004449"/>
<path d="M44.0502 38.9218C44.0502 37.281 43.0829 35.9132 41.1817 35.9132H39.4822V41.9459H41.1664C42.9904 41.9459 44.0502 40.4976 44.0502 38.9218ZM36.8949 44.2376V33.6215H41.073C44.3465 33.6215 46.6994 35.6275 46.6994 38.9218C46.6994 42.2159 44.3465 44.2376 41.0883 44.2376H36.8949Z" fill="#004449"/>
</g>
<defs>
<clipPath id="clip0_1_80">
<rect width="52" height="54" fill="white"/>
</clipPath>
</defs>
</svg>
