<svg width="116" height="54" viewBox="0 0 116 54" fill="none" xmlns="http://www.w3.org/2000/svg">
<path d="M103.791 45.8872L105.693 39.8302L107.56 45.8872H103.791ZM109.781 52.5369H114.931L107.606 33.6539H103.799L96.4783 52.5368H101.578L102.546 49.7796L108.835 49.7797L109.781 52.5369ZM92.8691 45.5203C91.8228 47.3335 90.3525 48.2377 88.4973 48.2377C87.1552 48.2377 85.9844 47.7168 84.9889 46.6856C84.0049 45.644 83.5146 44.3851 83.5146 42.9107C83.5146 41.5242 84.0049 40.3509 84.985 39.3954C85.965 38.4338 87.1631 37.9529 88.5671 37.9529C90.4812 37.9529 91.9434 38.9045 92.986 40.8118H98.0346C97.4276 38.4975 96.2606 36.6682 94.5299 35.2975C92.7914 33.9269 90.7996 33.2447 88.5438 33.2447C85.8369 33.2447 83.5224 34.1843 81.6009 36.0535C79.6833 37.9229 78.7187 40.1973 78.7187 42.8726C78.7187 45.6778 79.6446 48.0457 81.496 49.9871C83.3398 51.9304 85.6655 52.894 88.4973 52.894C90.7921 52.894 92.7834 52.2417 94.4716 50.9188C96.1598 49.5998 97.3069 47.7988 97.941 45.5203H92.8691ZM77.0386 33.6537H72.3942V52.5368H77.0386V33.6537ZM60.8115 37.9051H62.1147C64.1684 37.9051 65.1989 38.6352 65.1989 40.0897C65.1989 40.9176 64.9152 41.4981 64.3471 41.8392C63.7987 42.1865 62.9198 42.3562 61.7334 42.3562H60.8115V37.9051ZM64.4718 52.5368H70.2434L65.5761 46.0408C66.9333 45.6735 67.9874 44.9436 68.7384 43.8684C69.5082 42.787 69.8818 41.4861 69.8818 39.9661C69.8818 37.6318 69.0221 35.8741 67.3147 34.6912C66.3346 34.0047 64.7206 33.6537 62.492 33.6537H56.1828V52.5368H60.8112L60.8113 46.4501L64.4718 52.5368ZM53.2112 48.3454H47.5093V45.0673H53.2112V40.8677H47.5093V37.8492H53.2112V33.6536H42.8809V52.5368H53.2112V48.3454ZM24.9072 40.0437L28.828 52.5368H32.1147L36.0313 40.0437V52.5368H40.4616V33.6537H34.1293L30.4694 45.1988L26.8365 33.6537H20.4772V52.5368H24.9072V40.0437ZM8.56353 45.8872L10.4657 39.8302L12.3405 45.8872H8.56353ZM14.5533 52.5369H19.6953L12.3752 33.6539H8.57537L1.2475 52.5368H6.35044L7.30723 49.7796L13.6082 49.7797L14.5533 52.5369ZM78.0851 12.097V4.2645H79.4384C80.6986 4.2645 81.6634 4.60171 82.3168 5.27598C82.9862 5.95454 83.3085 6.91592 83.3085 8.16689C83.3085 9.51558 83.0051 10.505 82.3676 11.1414C81.7413 11.7859 80.7841 12.097 79.4501 12.097H78.0851ZM84.7085 13.4278C86.0467 12.123 86.7273 10.4013 86.7273 8.27648C86.7273 5.99402 86.0467 4.2126 84.678 2.93776C83.9855 2.2893 83.2072 1.83628 82.3598 1.59293C81.6129 1.37954 80.6366 1.28181 79.4426 1.28181H74.674V15.1475H79.9171C80.9824 15.1475 81.8381 15.0457 82.4953 14.8364C83.2579 14.5889 83.997 14.12 84.7085 13.4278ZM66.6769 4.45222C67.6608 4.45222 68.505 4.80724 69.2052 5.51547C69.9247 6.2237 70.2749 7.08943 70.2749 8.10698C70.2749 9.2242 69.9285 10.1498 69.2169 10.884C68.5205 11.6103 67.661 11.9733 66.6457 11.9733C65.6501 11.9733 64.7904 11.6025 64.0556 10.8501C63.3163 10.1 62.9508 9.19025 62.9508 8.10698C62.9506 7.08943 63.3126 6.2237 64.04 5.51547C64.7554 4.80724 65.6345 4.45222 66.6769 4.45222ZM66.6456 15.3948C68.6684 15.3948 70.3836 14.6746 71.7913 13.2283C73.1376 11.8397 73.8217 10.142 73.8217 8.127C73.8217 6.16393 73.0947 4.47804 71.6595 3.07358C70.2516 1.71288 68.5863 1.0306 66.6615 1.0306C64.6626 1.0306 62.9508 1.71288 61.5505 3.07358C60.1464 4.44021 59.4505 6.10002 59.4505 8.05922C59.4504 10.1338 60.127 11.8695 61.4768 13.2781C62.8418 14.6907 64.553 15.3948 66.6456 15.3948ZM51.6206 4.45222C52.6087 4.45222 53.4448 4.80724 54.1605 5.51547C54.8607 6.2237 55.2145 7.08943 55.2145 8.10698C55.2145 9.2242 54.8607 10.1498 54.1643 10.884C53.4643 11.6103 52.6086 11.9733 51.5819 11.9733C50.5938 11.9733 49.7304 11.6025 48.9992 10.8501C48.2718 10.1 47.8985 9.19025 47.8985 8.10698C47.8984 7.08943 48.2599 6.2237 48.9836 5.51547C49.7071 4.80724 50.5783 4.45222 51.6206 4.45222ZM51.5858 15.3948C53.6043 15.3948 55.335 14.6746 56.7354 13.2283C58.0849 11.8397 58.7617 10.142 58.7617 8.127C58.7617 6.16393 58.0384 4.47804 56.5914 3.07358C55.195 1.71288 53.5421 1.0306 51.6091 1.0306C49.5981 1.0306 47.8985 1.71288 46.5021 3.07358C45.1017 4.44021 44.3977 6.10002 44.3977 8.05922C44.3977 10.1338 45.0707 11.8695 46.4319 13.2781C47.7855 14.6907 49.5048 15.3948 51.5858 15.3948ZM36.7743 10.108H39.7498C39.0499 11.375 37.9956 12.0074 36.603 12.0074C35.6269 12.0074 34.7751 11.6222 34.0477 10.8582C33.3165 10.0901 32.9587 9.1723 32.9587 8.08503C32.9587 7.08156 33.3047 6.21569 34.0164 5.49739C34.7204 4.77714 35.5838 4.41812 36.6108 4.41812C37.6611 4.41812 38.6138 4.87501 39.4776 5.78477H43.3631C42.8109 4.3124 41.9239 3.15101 40.7106 2.2893C39.5241 1.42729 38.1627 1.00037 36.6537 1.00037C34.6621 1.00037 32.9625 1.68279 31.5624 3.05743C30.1541 4.43193 29.4425 6.09988 29.4425 8.05895C29.4425 10.1239 30.1309 11.8615 31.4844 13.2919C32.8302 14.7124 34.5457 15.4246 36.6109 15.4246C37.8168 15.4246 38.9176 15.1533 39.9754 14.5927C41.0373 14.0461 41.8928 13.2879 42.5579 12.3223C43.3512 11.1612 43.7521 9.80448 43.7521 8.26047C43.7521 8.05895 43.7482 7.75555 43.7093 7.34271L36.7743 7.34278V10.108ZM94.5686 26.3098H97.5404C96.8322 27.5767 95.79 28.213 94.4016 28.213C93.4176 28.213 92.5696 27.8242 91.8383 27.064C91.107 26.2999 90.7493 25.3741 90.7493 24.2909C90.7493 23.2794 91.0993 22.4217 91.8033 21.7072C92.5115 20.983 93.3784 20.6238 94.4016 20.6238C95.4479 20.6238 96.4044 21.0808 97.2682 21.9905H101.162C100.593 20.5123 99.7112 19.3533 98.5132 18.4953C97.307 17.6313 95.9534 17.2044 94.4443 17.2044C92.4489 17.2044 90.7611 17.8888 89.3454 19.2634C87.949 20.636 87.2449 22.3059 87.2449 24.2689C87.2449 26.33 87.9139 28.0675 89.2637 29.4939C90.629 30.9184 92.3327 31.6346 94.4018 31.6346C95.6038 31.6346 96.7201 31.3495 97.7743 30.8027C98.8164 30.2521 99.68 29.488 100.345 28.5243C101.15 27.3631 101.547 26.0146 101.547 24.4642C101.547 24.2688 101.531 23.9615 101.505 23.5485L94.5686 23.5486V26.3098ZM78.2366 23.6323L83.4366 31.3493H86.4359V17.4777H83.0283V25.1868L77.9099 17.4777H74.8215V31.3495H78.2366V23.6323ZM73.3591 17.4777H69.9522V31.3495H73.3591V17.4777ZM65.5181 31.3493H68.5205V17.4777H65.1097V25.1868L59.9793 17.4777H56.9026V31.3495H60.3094L60.3095 23.6323L65.5181 31.3493ZM48.8124 20.594H49.7573C51.2586 20.594 52.0016 21.1327 52.0016 22.212C52.0016 22.8266 51.7955 23.2534 51.4028 23.5089C50.9865 23.7602 50.3526 23.884 49.4851 23.884H48.8124V20.594ZM51.4882 31.3495H55.7006L52.2895 26.5953C53.2891 26.3218 54.0593 25.7891 54.6116 24.9991C55.1716 24.2012 55.444 23.2454 55.444 22.1263C55.444 20.4106 54.8256 19.1138 53.5654 18.2458C52.8458 17.7351 51.6674 17.4777 50.0259 17.4777H45.3974V31.3495H48.8125V26.8843L51.4882 31.3495ZM37.3732 20.6578C38.3611 20.6578 39.2011 21.0089 39.913 21.7173C40.617 22.4295 40.9748 23.2953 40.9748 24.3069C40.9748 25.43 40.6209 26.3558 39.9171 27.086C39.2206 27.8122 38.3612 28.1792 37.3227 28.1792C36.3504 28.1792 35.483 27.8021 34.7556 27.056C34.0165 26.3038 33.6471 25.3921 33.6471 24.3069C33.647 23.2953 34.0126 22.4295 34.74 21.7173C35.4556 21.0091 36.3349 20.6578 37.3732 20.6578ZM37.3419 31.6008C39.3645 31.6008 41.0798 30.8804 42.4839 29.438C43.8337 28.0494 44.5065 26.3438 44.5065 24.3287C44.5065 22.3616 43.7831 20.6797 42.3517 19.2791C40.9477 17.9187 39.2788 17.2301 37.3536 17.2301C35.3506 17.2301 33.6468 17.9187 32.2504 19.2791C30.8504 20.6458 30.1462 22.3056 30.1462 24.2688C30.1465 26.3398 30.8232 28.0715 32.1807 29.48C33.5345 30.8966 35.2573 31.6008 37.3419 31.6008ZM20.7688 31.3495H23.1804L26.051 22.182V31.3495H29.3105V17.4777H24.6586L21.9708 25.9667L19.3027 17.4777H14.6273V31.3495H17.887L17.8869 22.182L20.7688 31.3495Z" fill="#FFFEF0"/>
</svg>
