<svg width="76" height="54" viewBox="0 0 76 54" fill="none" xmlns="http://www.w3.org/2000/svg">
<path d="M7.5179 13.8992H11.3608V20.8929L15.6093 13.8992H19.4965L15.106 20.0606L19.8691 30.6587H15.8933L12.8149 22.9423L11.3608 24.9617V30.6598H7.5179V13.8992Z" fill="#FFFEF0"/>
<path d="M21.1469 13.8992H31.7944V16.7731H24.9955V20.6657H30.2807V23.5408H24.9955V27.6672H31.7944V30.6598H21.1469V13.8992Z" fill="#FFFEF0"/>
<path d="M33.4978 13.8992H37.2998V27.5162H42.8677V30.6598H33.4978V13.8992Z" fill="#FFFEF0"/>
<path d="M44.9973 13.8992H48.796V27.5162H54.3672V30.6598H44.9973V13.8992Z" fill="#FFFEF0"/>
<path d="M51.8118 13.8992H56.0822L58.5708 20.0087L61.2337 13.8992H65.0148L60.1165 23.5749V30.6598H56.2415V23.5761L51.8118 13.8992Z" fill="#FFFEF0"/>
<path d="M7.5179 11.4463V3.27039H9.23261V10.1101H13.0546V11.4463H7.5179Z" fill="#FFFEF0"/>
<path d="M13.9066 11.4463V3.27039H15.1843V11.4463H13.9066Z" fill="#FFFEF0"/>
<path d="M20.211 11.4463H18.6597L16.0361 3.27039H17.6502L19.595 9.53928L21.5787 3.27039H22.8505L20.211 11.4463Z" fill="#FFFEF0"/>
<path d="M23.7024 11.4463V3.27039H29.1886V4.48017H25.2366V6.70286H28.4083V7.89175H25.2366V10.1838H29.2392V11.4463H23.7024Z" fill="#FFFEF0"/>
<path d="M14.7582 46.122L13.0319 46.5965V48.8891L14.7582 49.3691V50.2819L7.5179 48.3046V46.9733L14.7582 44.9675V46.122ZM8.75591 47.7521L11.9899 48.621V46.8832L8.75591 47.7521Z" fill="#FFFEF0"/>
<path d="M14.7582 40.6368L10.1342 42.9603L9.99272 43.0228C9.92777 43.0527 9.84462 43.0856 9.74324 43.1214L9.57453 43.1883C9.50561 43.2154 9.43155 43.2469 9.35234 43.2827H14.7582V44.15H7.5179V42.9603L11.7833 40.8769C11.8553 40.8411 11.9891 40.7815 12.1848 40.6981C12.2355 40.6799 12.3004 40.6547 12.3796 40.6225C12.4589 40.5903 12.5492 40.5502 12.6505 40.5018H7.5179V39.6532H14.7582V40.6368Z" fill="#FFFEF0"/>
<path d="M11.154 33.5216C11.659 33.5152 12.1616 33.5867 12.6413 33.7332C13.0573 33.8606 13.4426 34.062 13.7756 34.3261C14.0898 34.5801 14.3382 34.8965 14.5026 35.2518C14.6769 35.6352 14.7638 36.048 14.758 36.4641V38.4267H7.51809V36.2227C7.51316 35.8433 7.6043 35.4681 7.78417 35.1272C7.96358 34.7958 8.219 34.5045 8.53251 34.2743C8.87555 34.0246 9.26537 33.836 9.68234 33.7177C10.159 33.5822 10.6555 33.516 11.154 33.5216ZM11.1457 34.6887C10.791 34.6855 10.4373 34.7248 10.0933 34.8055C9.80237 34.8731 9.52543 34.9848 9.27372 35.1361C9.05698 35.264 8.87424 35.4359 8.73919 35.6386C8.61134 35.8385 8.54557 36.0674 8.54914 36.2998V37.3236H13.6925V36.4255C13.6954 36.1784 13.6321 35.9346 13.5084 35.7157C13.3846 35.4977 13.2081 35.3091 12.9928 35.1648C12.7494 35.005 12.4776 34.8864 12.1899 34.8143C11.8499 34.7275 11.4984 34.6853 11.1457 34.6887Z" fill="#FFFEF0"/>
<path d="M17.7398 33.1124H23.6447C24.7915 33.1124 25.6701 33.1593 26.2806 33.2532C26.9502 33.3715 27.583 33.6318 28.1316 34.0145C28.7719 34.4449 29.2792 35.0299 29.6009 35.709C29.9633 36.4661 30.1444 37.2901 30.1311 38.1215C30.1311 40.2176 29.2501 41.6911 27.4882 42.5422L30.9428 49.8731H26.4476L23.9343 43.2426H21.8683V49.8731H17.7398V33.1124ZM21.8694 35.8264V40.5298H23.6867C25.3015 40.5298 26.1089 39.7234 26.1089 38.1105C26.1089 37.5542 25.9897 37.0976 25.7516 36.7408C25.5588 36.4239 25.2681 36.1708 24.9188 36.016C24.6019 35.8889 24.1347 35.8254 23.5174 35.8254L21.8694 35.8264Z" fill="#FFFEF0"/>
<path d="M29.6651 33.1124H34.2048L36.8541 39.222L39.69 33.1124H43.7198L38.5066 42.7883V49.8731H34.3834V42.7883L29.6651 33.1124Z" fill="#FFFEF0"/>
<path d="M45.8532 33.1124H49.9386L55.2189 49.8731H51.0647L50.1464 46.4102H44.9418L44.0361 49.8731H40.3123L45.8532 33.1124ZM49.3806 43.5368L47.5142 36.6663L45.7235 43.5368H49.3806Z" fill="#FFFEF0"/>
<path d="M56.9225 33.1124H61.4129L66.1459 43.5297V33.1124H69.2737V49.8731H65.6574L60.0481 37.737V49.8731H56.9225V33.1124Z" fill="#FFFEF0"/>
</svg>
