<svg width="72" height="54" viewBox="0 0 72 54" fill="none" xmlns="http://www.w3.org/2000/svg">
<g clip-path="url(#clip0_1_46)">
<path d="M26.533 10.8067V5.59523L24.7749 6.27996C24.7749 6.27996 24.3451 7.15489 24.4233 8.44827C24.4623 9.4754 25.0874 10.6546 25.5562 11.1872L26.533 10.8067ZM31.2603 0.0793457C31.651 0.117386 32.3152 0.307589 32.7839 0.687995C33.2918 1.14448 33.4091 1.86725 33.2528 2.51394C33.0965 3.08455 32.9012 3.38887 32.276 3.80732C31.651 4.22577 31.1821 4.26381 31.1821 4.26381V6.77448L32.3933 7.68745L31.1821 8.75259V12.1763C31.1821 12.1763 32.1979 11.3774 32.9793 9.81769C32.9793 9.81769 33.0183 9.74161 33.0965 9.55148C33.1747 9.96993 33.1356 10.8448 32.6277 11.9099C32.237 12.7469 31.5729 13.5077 30.6742 13.9641C29.1506 14.763 27.9785 14.8391 26.7674 14.6108C25.3218 14.3446 23.9935 13.5838 23.134 12.2523C22.5088 11.3013 22.2354 10.2361 22.2354 9.05691C22.2745 6.73645 24.1108 4.75833 26.2204 3.99752C26.4939 3.92145 26.5721 3.84536 26.9236 3.80732C26.7674 3.92145 26.5721 4.03557 26.3376 4.18772C25.6734 4.60617 25.0874 5.44306 24.8139 6.08975L28.8771 4.37793V9.74161L25.6344 11.3013C26.0251 11.7958 27.1581 12.5186 28.1348 12.6327C29.7757 12.8229 30.8696 12.2142 30.8696 12.2142V8.71455L29.6584 7.68745L30.8696 6.77448V4.26381C30.1663 4.18772 29.1897 3.8834 28.7208 3.76928C27.9785 3.61711 25.5562 2.97043 25.1656 2.89435C24.7749 2.85631 24.306 2.85631 24.0325 3.08455C23.7591 3.31279 23.5637 3.76928 23.681 4.14969C23.7591 4.37793 23.9154 4.49205 24.0325 4.60617C24.0325 4.60617 23.8763 4.60617 23.6419 4.45401C23.1731 4.18772 22.8215 3.6932 22.7824 3.04651C22.7596 2.64842 22.8407 2.2512 23.0184 1.89196C23.1961 1.53273 23.4643 1.22321 23.7981 0.992315C24.4233 0.611913 25.1265 0.383671 25.9469 0.497791C27.1581 0.649954 28.7599 1.29665 30.2055 1.63901C30.7524 1.75313 31.1821 1.79117 31.5729 1.60097C31.7681 1.48685 32.0808 1.14448 31.8073 0.726035C31.4946 0.231508 30.9086 0.231508 30.4007 0.155427C30.8696 0.0793457 30.9477 0.0793457 31.2603 0.0793457Z" fill="#FFFEF0"/>
<path d="M47.1609 9.43736L45.2856 10.7308V6.4702L47.1609 9.43736ZM47.0827 5.32898L45.0122 6.50824L43.0587 7.49729V12.4426L42.3164 13.0132L42.4336 13.1273L43.1759 12.5566L45.4809 14.4968L49.4659 11.5296L49.3878 11.4154L47.1609 13.0512L45.2856 11.4915V10.8829L48.919 8.37222L47.0827 5.32898Z" fill="#FFFEF0"/>
<path d="M36.6125 16.4367C37.1204 16.5508 38.058 16.6269 39.1911 16.0943C40.4412 15.5237 40.91 14.2683 40.91 13.0131L40.9491 11.2251V7.26889L41.7305 6.69829L41.6524 6.58416L40.871 7.15477L39.1911 5.25275L36.6125 7.11674V0.802002L33.9949 2.89423C34.112 2.97031 34.6982 3.0464 34.6982 3.57896V12.4425L33.3307 13.2793L33.4089 13.3934L33.9949 12.975L35.6357 14.4206L38.2143 12.4804L38.1362 12.3663L37.511 12.8228L36.6516 12.2522V7.30694L37.6674 6.69829L39.0738 8.10579V12.3663C39.0738 13.5076 38.7613 14.839 38.1362 15.5237C37.511 16.2084 37.2766 16.2464 36.6125 16.4367Z" fill="#FFFEF0"/>
<path d="M48.4507 47.7358L46.3801 49.0291V44.7686L48.4507 47.7358ZM48.4117 43.6273L46.3019 44.8066L44.3876 45.7957V50.7409L43.5672 51.3115L43.6843 51.4257L44.4266 50.8551L46.7317 52.7951L50.7167 49.8279L50.6386 49.7139L48.4117 51.3496L46.5754 49.7519V49.1433L50.2088 46.6326L48.4117 43.6273Z" fill="#FFFEF0"/>
<path d="M41.7833 52.7939L44.2059 50.7026L44.089 50.5887L43.5045 51.0838L42.489 50.1704V45.5296L43.465 44.8822L43.3876 44.7683L42.489 45.4157L40.8481 43.6658L38.5044 45.4157L36.824 43.7426L34.5592 45.4157L32.8789 43.7426L30.4563 45.7344L30.5337 45.8482L31.3154 45.2393L32.4113 46.4202V50.5289L31.8649 50.9842L33.6226 52.8338L35.4199 51.1606L34.6776 50.4379V45.4925L35.1072 45.1511L36.2395 46.5212V50.5901L35.8889 51.0454L37.5298 52.7569L39.2876 51.1208L38.5863 50.4735V45.5281L39.0947 45.1482L40.5559 46.4799V50.5489L39.9714 50.9287L41.7833 52.7939ZM27.2504 50.9686L26.5491 51.5377L26.6266 51.6514L27.3689 51.0426L28.9703 52.7925L31.276 50.8519L31.1986 50.7381L30.4972 51.3072L29.5591 50.2799V45.6804L30.3774 45.033L30.2604 44.9192L29.4787 45.5665L27.7984 43.717L25.3144 45.6192L25.6271 45.6946L26.2525 45.1995L27.2681 46.302L27.2504 50.9686ZM29.3049 41.6867L27.5471 43.1707L26.14 41.7252L27.9021 40.2029L29.3049 41.6867Z" fill="#FFFEF0"/>
<path d="M18.3286 49.1052V43.8937L16.6878 44.5784C16.6878 44.5784 16.258 45.4533 16.3361 46.7468C16.3751 47.7738 17.0003 48.9531 17.4691 49.4856L18.3286 49.1052ZM23.0168 38.3778C23.4466 38.4158 24.0717 38.606 24.5405 38.9865C25.0484 39.4429 25.1657 40.1657 25.0094 40.8124C24.853 41.383 24.6578 41.6873 24.0326 42.1058C23.4075 42.5243 22.9387 42.4862 22.9387 42.4862V44.9969L24.1108 45.9859L22.9387 46.975V50.3606C22.9387 50.3606 23.9155 49.6758 24.7359 48.1162C24.7359 48.1162 24.7749 48.0401 24.853 47.8499C24.9313 48.2683 24.8922 49.1433 24.3843 50.2084C23.9936 51.0454 23.3294 51.8061 22.4308 52.2626C20.9071 53.0615 19.7351 53.1375 18.5239 52.9093C17.0784 52.643 15.7501 51.8822 14.8906 50.5507C14.2654 49.5998 13.992 48.5346 13.992 47.3554C14.0311 45.0349 15.8672 43.0568 17.9769 42.2959C18.2114 42.2199 18.3286 42.1438 18.6802 42.1058C18.5239 42.2199 18.3286 42.334 18.0942 42.4862C17.43 42.9046 16.844 43.7415 16.5705 44.3882L20.5946 42.7525V48.1162L17.3909 49.5998C17.7817 50.0943 18.9147 50.817 19.8914 50.9312C21.5323 51.1214 22.5871 50.4367 22.5871 50.4367V46.9369L21.415 45.9478L22.5871 44.9588V42.4482C21.8839 42.3721 20.9853 42.1438 20.4774 42.0297C19.7351 41.8776 17.3128 41.2308 16.9221 41.1547C16.5315 41.1167 16.0626 41.1167 15.7891 41.345C15.5157 41.5732 15.3203 42.0297 15.4375 42.4101C15.5157 42.6383 15.672 42.7525 15.7891 42.8666C15.7891 42.8666 15.6329 42.8666 15.3985 42.7144C14.9297 42.4482 14.5781 41.9537 14.5389 41.3069C14.5162 40.9088 14.5973 40.5116 14.775 40.1524C14.9527 39.7932 15.2209 39.4836 15.5547 39.2527C16.1799 38.8723 16.883 38.6441 17.7035 38.7582C18.9147 38.9103 20.5165 39.5571 21.962 39.8994C22.509 40.0135 22.9387 40.0516 23.3294 39.8614C23.5247 39.7472 23.8373 39.4049 23.5639 38.9865C23.2512 38.4919 22.6652 38.4919 22.1573 38.4158C22.5871 38.3778 22.7043 38.3778 23.0168 38.3778Z" fill="#FFFEF0"/>
<path d="M53.4124 44.6165V47.0891L54.5063 47.8119C54.5063 47.8119 56.3816 46.3664 57.0849 45.073C57.0849 45.073 56.2254 46.1762 55.0923 45.8338C54.1157 45.5675 53.6469 44.6545 53.6469 44.6545M51.4981 51.1214C51.4981 51.1214 52.3185 49.8281 53.764 50.0943C55.1315 50.3606 55.7566 51.7301 55.7566 51.7301V48.6107L54.6236 47.85C53.6078 48.839 51.7325 50.2465 51.4981 51.1214ZM52.8655 53.4799C52.592 53.5561 51.459 53.2898 51.1855 52.1486C50.9121 51.0454 51.7325 50.3226 52.9436 49.1433L51.4981 47.888V45.5295C51.4981 45.5295 52.5529 45.035 53.3734 44.5404L55.0533 43.5133C55.0533 43.5133 55.6785 44.236 56.3816 44.1981C57.4755 44.122 57.4365 43.2851 57.3974 43.0948C57.5928 43.3991 58.1007 44.3502 56.1472 46.4425L57.71 47.6217V50.703C57.71 50.703 55.9129 51.5779 54.1547 52.7952C54.1547 52.7952 53.178 51.654 52.3576 52.1866C51.8106 52.605 52.0841 53.2137 52.8655 53.4799Z" fill="#FFFEF0"/>
<path d="M3.45824 33.4094C2.44245 33.2954 2.0127 32.7248 2.0127 32.2302C2.0127 31.9258 2.32525 31.3552 2.95035 31.2792C3.57544 31.2031 4.20055 31.4694 4.74751 32.078L7.1307 29.6054L7.01349 29.4913L6.38839 30.176C5.72422 29.4913 4.94285 29.0348 4.0052 28.9207V21.3506L10.0608 31.9639C10.0608 31.9639 10.2171 32.078 10.4906 32.078C10.725 32.078 10.6469 31.9258 10.6469 31.9258V21.2365C11.1548 21.2365 11.8189 20.9702 12.2097 20.5897C13.3817 19.4485 12.9128 18.1933 12.7957 18.041C12.7175 18.5736 12.2878 19.1442 11.5455 19.1442C10.5687 19.1442 9.98271 18.4595 9.98271 18.4595L7.52138 21.0463L7.63859 21.1604L8.30276 20.4376C9.1232 21.1604 9.59203 21.2365 10.2171 21.2745V27.4751L5.80236 19.6007C5.3726 18.954 4.74751 18.3834 3.77079 18.3834C2.6378 18.3834 1.81736 19.3345 1.70014 20.1333C1.58294 21.0463 1.70014 21.2745 1.70014 21.2745C1.70014 21.2745 1.85642 20.2474 2.52059 20.2474C3.10662 20.2474 3.30197 20.5517 3.57544 20.9321V23.4428C2.95035 23.4808 1.46574 23.557 1.34853 25.1546C1.34853 25.7633 1.73922 26.3719 2.09083 26.5621C2.52059 26.8284 2.87221 26.8284 2.87221 26.8284C2.87221 26.8284 2.36431 26.5621 2.52059 26.0296C2.67686 25.5731 3.57544 25.497 3.61452 25.6872V28.8826C3.10663 28.8826 1.66108 28.9207 0.918774 30.214C0.489018 30.9749 0.528086 31.8498 0.957841 32.4584C1.34853 32.991 2.12991 33.6376 3.45824 33.4094Z" fill="#FFFEF0"/>
<path d="M16.5853 26.8665L14.5537 28.1599V23.8994L16.5853 26.8665ZM16.5072 22.7582L14.3975 23.9374L12.5613 24.9264V29.8717L11.819 30.4424L11.9361 30.5564L12.6784 29.9858L14.8272 31.926L18.8122 28.9587L18.7341 28.8446L16.5072 30.4804L14.7101 28.8826V28.274L18.3435 25.7633L16.5072 22.7582Z" fill="#FFFEF0"/>
<path d="M22.1331 32.0399L20.1797 30.5183L19.3201 31.0889L19.242 30.9748L20.1015 30.3662V26.0676C20.1405 24.3177 18.3825 24.7362 18.4997 22.8721C18.5387 22.0352 19.3983 21.4266 19.828 21.2364C20.2969 21.0082 20.7657 21.0082 20.7657 21.0082C20.7657 21.0082 19.9453 21.4646 20.1405 22.1494C20.4532 23.2145 22.3285 23.2906 22.3675 24.6981V29.5673L23.5786 30.6324L23.9303 30.3662V25.0785L23.3833 24.3557L25.3367 22.72L27.1339 24.2036L26.3135 24.8883V29.5673L28.1106 30.8607L28.4232 30.6705V25.0785L27.6808 24.3938L29.6342 22.72L31.4705 24.1275L32.2128 23.5189L32.2909 23.633L30.65 25.0025V29.5673L26.4697 32.0019L24.3209 30.4423L22.1331 32.0399Z" fill="#FFFEF0"/>
<path d="M49.3249 29.1109L51.3565 30.8227V25.5731L49.3249 23.8233V29.1109ZM53.6616 24.8124L54.3648 24.2037L54.482 24.3178L53.6225 24.9264V29.8337L51.5909 30.9749L49.7156 32.04L47.3324 30.138L46.7074 30.6706L46.5901 30.5564L47.4105 30.0239V24.6982H47.2934L49.364 23.7091L51.1611 22.7201L53.6616 24.8124Z" fill="#FFFEF0"/>
<path d="M58.3888 24.3178L59.9125 22.8343C59.9125 22.8343 60.1078 23.0244 60.3031 23.1005C60.4203 23.1385 60.8891 23.3668 61.2799 23.1385C61.5143 23.0244 61.5534 22.9864 61.7878 22.7582C61.8268 23.8994 61.2408 24.6982 60.5376 25.0406C60.225 25.1927 59.2092 25.4209 58.2715 24.3939V29.6815L59.4046 30.4804L60.225 29.8717L60.3031 29.9858L57.8028 31.9639L55.8883 30.3282L55.1852 30.9369L55.0679 30.8227L55.9274 29.9479V25.4209L55.3023 24.4319L54.5991 25.0025L54.4819 24.8884L56.9041 22.8343L58.3888 24.3178Z" fill="#FFFEF0"/>
<path d="M64.7961 26.5242L67.6091 22.682C67.6091 22.682 67.9997 23.1005 68.6249 23.2526C69.4844 23.4809 70.2657 22.682 70.2657 22.682C70.1094 23.7091 69.5625 24.8884 68.4295 25.0786C67.4137 25.2308 66.476 24.508 66.476 24.508L66.2807 24.7743L70.1875 30.3282L70.9689 29.6815L71.0862 29.7956L68.3905 32.002L64.7961 26.5242Z" fill="#FFFEF0"/>
<path d="M62.6081 21.3506C62.6081 20.5136 62.1002 20.0191 61.6314 20.0572L64.5615 18.041V29.5293L65.4992 30.3282L66.1243 29.8337L66.2414 29.9477L63.7801 31.9639L62.1002 30.4803L61.436 31.0509L61.3188 30.9368L62.6472 29.9858V21.3506H62.6081Z" fill="#FFFEF0"/>
<path d="M42.7613 24.584C42.7613 24.584 42.4096 24.9643 41.9017 24.9643C41.3548 24.9643 41.1204 24.584 41.1204 24.584V26.1436C41.1204 26.1436 41.3548 25.7633 41.9017 25.7633C42.4488 25.7633 42.7613 26.1056 42.7613 26.1056V24.584ZM42.6831 21.2364L41.7065 20.2474L41.1204 20.6658V24.3558C41.1204 24.3558 41.472 24.7742 42.019 24.7742C42.5659 24.7742 42.6831 24.3558 42.6831 24.3558V21.2364ZM41.1204 31.6595C41.1204 31.6595 41.8236 31.8497 42.3706 31.4313C42.9566 30.9748 42.6831 30.3661 42.6831 30.3661V26.4099C42.6831 26.4099 42.5269 25.9915 42.019 25.9915C41.472 25.9915 41.1204 26.4099 41.1204 26.4099V31.6595ZM36.8228 21.1603C36.8228 20.3995 36.4712 19.943 35.9633 19.943C35.182 19.943 34.9866 20.9701 34.9866 20.9701C34.9866 20.9701 34.8304 20.1712 35.5727 19.4485C35.9633 19.03 36.7057 18.4594 37.8777 18.7257C39.0888 18.992 39.5577 19.8669 39.5577 20.6658V31.3552C39.7638 31.404 39.9724 31.4421 40.1828 31.4694C40.5343 31.5454 40.7297 31.6215 40.7297 31.6215V18.7638H41.1204V20.5136L43.5036 18.6497L45.3007 20.1712L46.1603 19.4866L46.2384 19.6006L45.3789 20.3235V30.252C45.3398 30.8988 45.2226 31.5454 44.5584 31.9258C43.1129 32.7246 41.3548 31.8116 39.7921 31.5834C38.62 31.4313 36.8228 31.203 36.354 32.2301C36.1978 32.5725 36.1978 33.067 36.7447 33.4094C37.7996 34.056 42.4878 32.3062 44.0896 32.9909C45.5351 33.6376 45.5351 34.6647 45.3398 35.3495C44.9491 36.6428 43.191 36.9091 43.191 36.9091C43.191 36.9091 44.0506 36.4526 43.8162 35.6538C43.6989 35.2734 43.4254 35.1593 42.4878 35.2353C40.4953 35.4636 38.073 36.3765 36.4712 35.7299C35.6508 35.3875 35.0648 34.4365 35.1038 33.4475C35.1429 32.0779 36.8619 31.5073 36.8619 31.5073V26.3718C36.8228 26.1817 35.9243 26.2197 35.6899 26.6002C35.3773 27.1708 36.0805 27.437 36.0805 27.437C36.0805 27.437 35.5335 27.5131 35.0648 27.0186C34.8304 26.7903 34.3615 25.9154 34.9866 25.0785C35.4945 24.3937 36.1196 24.2797 36.901 24.2036L36.8228 21.1603Z" fill="#FFFEF0"/>
</g>
<defs>
<clipPath id="clip0_1_46">
<rect width="72" height="54" fill="white"/>
</clipPath>
</defs>
</svg>
