<svg width="71" height="54" viewBox="0 0 71 54" fill="none" xmlns="http://www.w3.org/2000/svg">
<g clip-path="url(#clip0_1_63)">
<mask id="mask0_1_63" style="mask-type:luminance" maskUnits="userSpaceOnUse" x="0" y="0" width="71" height="54">
<path d="M70.6664 0.773804H0V53.7736H70.6664V0.773804Z" fill="white"/>
</mask>
<g mask="url(#mask0_1_63)">
<path d="M35.3358 12.78C29.1536 12.7826 23.2206 15.2626 18.8191 19.6839C14.4175 24.1053 11.9009 30.113 11.813 36.4087H20.8413C20.912 32.5401 22.4699 28.8541 25.1801 26.1427C27.8903 23.4312 31.5367 21.9106 35.3358 21.9076C39.1357 21.9095 42.7831 23.4296 45.4942 26.1412C48.2054 28.8528 49.7638 32.5394 49.8345 36.4087H58.8539C58.7661 30.1138 56.2501 24.1068 51.8496 19.6856C47.449 15.2644 41.5172 12.7839 35.3358 12.78Z" fill="#FFFEF0"/>
<path d="M35.3353 0.773804C26.0267 0.776603 17.0954 4.5215 10.483 11.1944C3.87069 17.8672 0.111854 26.9286 0.0236816 36.4087H9.22169C9.30959 29.4127 12.0991 22.7334 16.9864 17.8164C21.8736 12.8994 28.4656 10.1404 35.3353 10.1365C42.206 10.139 48.7992 12.8974 53.6876 17.8146C58.576 22.7317 61.3662 29.4118 61.4541 36.4087H70.6423C70.5542 26.9295 66.796 17.8688 60.1847 11.196C53.5733 4.5233 44.6432 0.777854 35.3353 0.773804Z" fill="#FFFEF0"/>
<path d="M35.3358 24.645C32.2494 24.6479 29.2864 25.88 27.0802 28.0782C24.8739 30.2763 23.5993 33.2662 23.5287 36.4087H47.1471C47.0765 33.2654 45.8013 30.275 43.5941 28.0767C41.3869 25.8784 38.4229 24.6467 35.3358 24.645Z" fill="#FFFEF0"/>
<path d="M0.00915527 39.5831V42.8423H3.83164V53.4946H7.56353V42.8423H11.386V39.5831H0.00915527Z" fill="#FFFEF0"/>
<path d="M48.2327 39.5823L42.9993 53.4432H47.1154L47.7678 51.5299H53.1961L53.8486 53.4432H57.9647L52.7313 39.5823C51.2318 39.5823 49.7322 39.5823 48.2327 39.5823ZM50.482 43.5699L52.1115 48.3489H48.8525L50.482 43.5699Z" fill="#FFFEF0"/>
<path d="M56.4471 39.5824L61.7741 47.916V53.4432H65.3567V47.916L70.6576 39.5824H66.5702L63.5706 44.6348L60.5708 39.5824H56.4471Z" fill="#FFFEF0"/>
<path d="M29.3563 39.6155V53.4586H35.5196C44.6031 53.5975 45.7685 39.7663 35.5196 39.6155H29.3563ZM33.0702 42.8233H35.7513C40.3165 42.8233 39.7646 50.287 35.7513 50.287H33.0702V42.8233Z" fill="#FFFEF0"/>
<path d="M19.7322 39.3938C14.947 39.3938 12.3137 42.5906 12.3137 46.534C12.3137 50.4774 15.2365 53.7736 19.8046 53.7736C24.3363 53.7736 27.1508 50.4774 27.1508 46.534C27.1508 42.5906 24.3364 39.3938 19.7322 39.3938ZM19.7834 42.6475C22.0864 42.6475 23.4942 44.3976 23.4942 46.5564C23.4942 48.7153 22.0864 50.5198 19.8197 50.5198C17.5348 50.5198 16.0729 48.7153 16.0729 46.5564C16.0729 44.3976 17.3899 42.6475 19.7834 42.6475Z" fill="#FFFEF0"/>
</g>
</g>
<defs>
<clipPath id="clip0_1_63">
<rect width="71" height="54" fill="white"/>
</clipPath>
</defs>
</svg>
